<?xml version="1.0" standalone="no"?><!DOCTYPE svg PUBLIC "-//W3C//DTD SVG 1.1//EN" "http://www.w3.org/Graphics/SVG/1.1/DTD/svg11.dtd"><svg t="1530627985875" class="icon" style="" viewBox="0 0 1024 1024" version="1.1" xmlns="http://www.w3.org/2000/svg" p-id="695" xmlns:xlink="http://www.w3.org/1999/xlink" width="200" height="200"><defs><style type="text/css"></style></defs><path d="M928.677 199.312c1.444-0.722 0.722-131.43 0.722-131.43s-146.595-2.167-148.04-2.89C698.314 14.443 616.712 0 512 0 212.31 0 0 212.31 0 512c0 298.968 212.31 512 512 512 298.968 0 512-212.31 512-512-0.722-123.487-25.997-221.698-95.323-312.688zM512 954.674c-244.085 0-443.396-198.59-443.396-443.396 0-244.085 198.59-442.674 443.396-442.674 93.157 0 179.814 20.942 251.306 70.77 2.166-2.167 105.433-2.889 105.433-2.889s0.722 98.212 0.722 100.378C929.4 312.688 954.674 408.011 954.674 512c0 244.085-198.59 442.674-442.674 442.674zM213.755 409.456l-8.666 38.995 150.206 48.384-150.206 64.993 8.666 51.994 195.7-84.49-5.777-32.497 5.778-24.553-195.701-62.826z m596.49 0l-196.423 62.826 5.777 24.553-5.777 33.219 196.423 83.768 8.666-51.994-150.206-64.993 150.206-48.384-8.666-38.995z m-366.849 272.97h136.486v-68.604H443.396v68.604z m0 0" p-id="696" fill="#1296db"></path></svg>